<svg class="marks" width="622.4446666666666" height="331.2223333333333" viewBox="0 0 622.4446666666666 331.2223333333333" version="1.1" xmlns="http://www.w3.org/2000/svg" xmlns:xlink="http://www.w3.org/1999/xlink"><g transform="translate(38,6)"><g class="mark-group role-frame root"><g transform="translate(0,0)"><path class="background" d="M0,0h580.4446666666666v290.2223333333333h-580.4446666666666Z" style="fill: none;"></path><g><g class="mark-group role-axis"><g transform="translate(0.5,290.7223333333333)"><path class="background" d="M0,0h0v0h0Z" style="pointer-events: none; fill: none;"></path><g><g class="mark-rule role-axis-tick" style="pointer-events: none;"><line transform="translate(16,0)" x2="0" y2="5" style="fill: none; stroke: #888; stroke-width: 1; opacity: 1;"></line><line transform="translate(101,0)" x2="0" y2="5" style="fill: none; stroke: #888; stroke-width: 1; opacity: 1;"></line><line transform="translate(186,0)" x2="0" y2="5" style="fill: none; stroke: #888; stroke-width: 1; opacity: 1;"></line><line transform="translate(271,0)" x2="0" y2="5" style="fill: none; stroke: #888; stroke-width: 1; opacity: 1;"></line><line transform="translate(356,0)" x2="0" y2="5" style="fill: none; stroke: #888; stroke-width: 1; opacity: 1;"></line><line transform="translate(440,0)" x2="0" y2="5" style="fill: none; stroke: #888; stroke-width: 1; opacity: 1;"></line><line transform="translate(525,0)" x2="0" y2="5" style="fill: none; stroke: #888; stroke-width: 1; opacity: 1;"></line></g><g class="mark-text role-axis-label" style="pointer-events: none;"><text text-anchor="middle" transform="translate(16.445377408813673,15)" style="font-family: sans-serif; font-size: 10px; fill: #000; opacity: 1;">-1.5</text><text text-anchor="middle" transform="translate(101.2169048236884,15)" style="font-family: sans-serif; font-size: 10px; fill: #000; opacity: 1;">-1.0</text><text text-anchor="middle" transform="translate(185.9884322385631,15)" style="font-family: sans-serif; font-size: 10px; fill: #000; opacity: 1;">-0.5</text><text text-anchor="middle" transform="translate(270.7599596534378,15)" style="font-family: sans-serif; font-size: 10px; fill: #000; opacity: 1;">0.0</text><text text-anchor="middle" transform="translate(355.5314870683126,15)" style="font-family: sans-serif; font-size: 10px; fill: #000; opacity: 1;">0.5</text><text text-anchor="middle" transform="translate(440.30301448318727,15)" style="font-family: sans-serif; font-size: 10px; fill: #000; opacity: 1;">1.0</text><text text-anchor="middle" transform="translate(525.074541898062,15)" style="font-family: sans-serif; font-size: 10px; fill: #000; opacity: 1;">1.5</text></g><g class="mark-rule role-axis-domain" style="pointer-events: none;"><line transform="translate(0,0)" x2="580.4446666666666" y2="0" style="fill: none; stroke: #888; stroke-width: 1; opacity: 1;"></line></g><g class="mark-text role-axis-title" style="pointer-events: none;"><text text-anchor="middle" transform="translate(290.2223333333333,31)" style="font-family: sans-serif; font-size: 11px; font-weight: bold; fill: #000; opacity: 1;">clr</text></g></g></g></g><g class="mark-group role-axis"><g transform="translate(0.5,0.5)"><path class="background" d="M0,0h0v0h0Z" style="pointer-events: none; fill: none;"></path><g><g class="mark-rule role-axis-tick" style="pointer-events: none;"><line transform="translate(0,290)" x2="-5" y2="0" style="fill: none; stroke: #888; stroke-width: 1; opacity: 1;"></line><line transform="translate(0,261)" x2="-5" y2="0" style="fill: none; stroke: #888; stroke-width: 1; opacity: 1;"></line><line transform="translate(0,232)" x2="-5" y2="0" style="fill: none; stroke: #888; stroke-width: 1; opacity: 1;"></line><line transform="translate(0,203)" x2="-5" y2="0" style="fill: none; stroke: #888; stroke-width: 1; opacity: 1;"></line><line transform="translate(0,174)" x2="-5" y2="0" style="fill: none; stroke: #888; stroke-width: 1; opacity: 1;"></line><line transform="translate(0,145)" x2="-5" y2="0" style="fill: none; stroke: #888; stroke-width: 1; opacity: 1;"></line><line transform="translate(0,116)" x2="-5" y2="0" style="fill: none; stroke: #888; stroke-width: 1; opacity: 1;"></line><line transform="translate(0,87)" x2="-5" y2="0" style="fill: none; stroke: #888; stroke-width: 1; opacity: 1;"></line><line transform="translate(0,58)" x2="-5" y2="0" style="fill: none; stroke: #888; stroke-width: 1; opacity: 1;"></line><line transform="translate(0,29)" x2="-5" y2="0" style="fill: none; stroke: #888; stroke-width: 1; opacity: 1;"></line><line transform="translate(0,0)" x2="-5" y2="0" style="fill: none; stroke: #888; stroke-width: 1; opacity: 1;"></line></g><g class="mark-text role-axis-label" style="pointer-events: none;"><text text-anchor="end" transform="translate(-7,293.2223333333333)" style="font-family: sans-serif; font-size: 10px; fill: #000; opacity: 1;">0</text><text text-anchor="end" transform="translate(-7,264.2001)" style="font-family: sans-serif; font-size: 10px; fill: #000; opacity: 1;">2</text><text text-anchor="end" transform="translate(-7,235.17786666666666)" style="font-family: sans-serif; font-size: 10px; fill: #000; opacity: 1;">4</text><text text-anchor="end" transform="translate(-7,206.15563333333333)" style="font-family: sans-serif; font-size: 10px; fill: #000; opacity: 1;">6</text><text text-anchor="end" transform="translate(-7,177.1334)" style="font-family: sans-serif; font-size: 10px; fill: #000; opacity: 1;">8</text><text text-anchor="end" transform="translate(-7,148.11116666666666)" style="font-family: sans-serif; font-size: 10px; fill: #000; opacity: 1;">10</text><text text-anchor="end" transform="translate(-7,119.08893333333333)" style="font-family: sans-serif; font-size: 10px; fill: #000; opacity: 1;">12</text><text text-anchor="end" transform="translate(-7,90.0667)" style="font-family: sans-serif; font-size: 10px; fill: #000; opacity: 1;">14</text><text text-anchor="end" transform="translate(-7,61.044466666666665)" style="font-family: sans-serif; font-size: 10px; fill: #000; opacity: 1;">16</text><text text-anchor="end" transform="translate(-7,32.022233333333304)" style="font-family: sans-serif; font-size: 10px; fill: #000; opacity: 1;">18</text><text text-anchor="end" transform="translate(-7,3)" style="font-family: sans-serif; font-size: 10px; fill: #000; opacity: 1;">20</text></g><g class="mark-rule role-axis-domain" style="pointer-events: none;"><line transform="translate(0,290.2223333333333)" x2="0" y2="-290.2223333333333" style="fill: none; stroke: #888; stroke-width: 1; opacity: 1;"></line></g><g class="mark-text role-axis-title" style="pointer-events: none;"><text text-anchor="middle" transform="translate(-24.733333587646484,145.11116666666666) rotate(-90) translate(0,-2)" style="font-family: sans-serif; font-size: 11px; font-weight: bold; fill: #000; opacity: 1;">W</text></g></g></g></g><g class="mark-symbol role-mark"><path transform="translate(220.60790138499934,290.2223333333333)" d="M4,0A4,4,0,1,1,-4,0A4,4,0,1,1,4,0" style="fill: black; opacity: 0.3;"></path><path transform="translate(272.12236656369276,290.2223333333333)" d="M4,0A4,4,0,1,1,-4,0A4,4,0,1,1,4,0" style="fill: black; opacity: 0.3;"></path><path transform="translate(374.8912360500417,290.2223333333333)" d="M4,0A4,4,0,1,1,-4,0A4,4,0,1,1,4,0" style="fill: black; opacity: 0.3;"></path><path transform="translate(302.68798632619394,290.2223333333333)" d="M4,0A4,4,0,1,1,-4,0A4,4,0,1,1,4,0" style="fill: black; opacity: 0.3;"></path><path transform="translate(398.8967231532603,290.2223333333333)" d="M4,0A4,4,0,1,1,-4,0A4,4,0,1,1,4,0" style="fill: black; opacity: 0.3;"></path><path transform="translate(417.0261142523409,290.2223333333333)" d="M4,0A4,4,0,1,1,-4,0A4,4,0,1,1,4,0" style="fill: black; opacity: 0.3;"></path><path transform="translate(274.6846018133346,290.2223333333333)" d="M4,0A4,4,0,1,1,-4,0A4,4,0,1,1,4,0" style="fill: black; opacity: 0.3;"></path><path transform="translate(267.17342225857277,290.2223333333333)" d="M4,0A4,4,0,1,1,-4,0A4,4,0,1,1,4,0" style="fill: black; opacity: 0.3;"></path><path transform="translate(259.41250211297717,290.2223333333333)" d="M4,0A4,4,0,1,1,-4,0A4,4,0,1,1,4,0" style="fill: black; opacity: 0.3;"></path><path transform="translate(302.70478236881905,290.2223333333333)" d="M4,0A4,4,0,1,1,-4,0A4,4,0,1,1,4,0" style="fill: black; opacity: 0.3;"></path><path transform="translate(241.80164947554852,290.2223333333333)" d="M4,0A4,4,0,1,1,-4,0A4,4,0,1,1,4,0" style="fill: black; opacity: 0.3;"></path><path transform="translate(259.41250211297717,290.2223333333333)" d="M4,0A4,4,0,1,1,-4,0A4,4,0,1,1,4,0" style="fill: black; opacity: 0.3;"></path><path transform="translate(211.82106811599309,290.2223333333333)" d="M4,0A4,4,0,1,1,-4,0A4,4,0,1,1,4,0" style="fill: black; opacity: 0.3;"></path><path transform="translate(384.59658135690387,290.2223333333333)" d="M4,0A4,4,0,1,1,-4,0A4,4,0,1,1,4,0" style="fill: black; opacity: 0.3;"></path><path transform="translate(198.98924892090466,275.71121666666664)" d="M4,0A4,4,0,1,1,-4,0A4,4,0,1,1,4,0" style="fill: black; opacity: 0.3;"></path><path transform="translate(421.1219811417685,290.2223333333333)" d="M4,0A4,4,0,1,1,-4,0A4,4,0,1,1,4,0" style="fill: black; opacity: 0.3;"></path><path transform="translate(331.4660141990028,290.2223333333333)" d="M4,0A4,4,0,1,1,-4,0A4,4,0,1,1,4,0" style="fill: black; opacity: 0.3;"></path><path transform="translate(299.6731925135657,290.2223333333333)" d="M4,0A4,4,0,1,1,-4,0A4,4,0,1,1,4,0" style="fill: black; opacity: 0.3;"></path><path transform="translate(187.01915647636503,290.2223333333333)" d="M4,0A4,4,0,1,1,-4,0A4,4,0,1,1,4,0" style="fill: black; opacity: 0.3;"></path><path transform="translate(284.72753327406514,290.2223333333333)" d="M4,0A4,4,0,1,1,-4,0A4,4,0,1,1,4,0" style="fill: black; opacity: 0.3;"></path><path transform="translate(412.908086767291,261.2001)" d="M4,0A4,4,0,1,1,-4,0A4,4,0,1,1,4,0" style="fill: black; opacity: 0.3;"></path><path transform="translate(357.0848294395803,290.2223333333333)" d="M4,0A4,4,0,1,1,-4,0A4,4,0,1,1,4,0" style="fill: black; opacity: 0.3;"></path><path transform="translate(249.95840483715165,290.2223333333333)" d="M4,0A4,4,0,1,1,-4,0A4,4,0,1,1,4,0" style="fill: black; opacity: 0.3;"></path><path transform="translate(426.82949131061883,290.2223333333333)" d="M4,0A4,4,0,1,1,-4,0A4,4,0,1,1,4,0" style="fill: black; opacity: 0.3;"></path><path transform="translate(450.3723819079951,290.2223333333333)" d="M4,0A4,4,0,1,1,-4,0A4,4,0,1,1,4,0" style="fill: black; opacity: 0.3;"></path><path transform="translate(424.41225500737227,290.2223333333333)" d="M4,0A4,4,0,1,1,-4,0A4,4,0,1,1,4,0" style="fill: black; opacity: 0.3;"></path><path transform="translate(112.59245101056314,290.2223333333333)" d="M4,0A4,4,0,1,1,-4,0A4,4,0,1,1,4,0" style="fill: black; opacity: 0.3;"></path><path transform="translate(272.4519644377011,290.2223333333333)" d="M4,0A4,4,0,1,1,-4,0A4,4,0,1,1,4,0" style="fill: black; opacity: 0.3;"></path><path transform="translate(190.36404711467807,275.71121666666664)" d="M4,0A4,4,0,1,1,-4,0A4,4,0,1,1,4,0" style="fill: black; opacity: 0.3;"></path><path transform="translate(297.4176784458828,290.2223333333333)" d="M4,0A4,4,0,1,1,-4,0A4,4,0,1,1,4,0" style="fill: black; opacity: 0.3;"></path><path transform="translate(298.0874368609892,290.2223333333333)" d="M4,0A4,4,0,1,1,-4,0A4,4,0,1,1,4,0" style="fill: black; opacity: 0.3;"></path><path transform="translate(514.1695007603694,290.2223333333333)" d="M4,0A4,4,0,1,1,-4,0A4,4,0,1,1,4,0" style="fill: black; opacity: 0.3;"></path><path transform="translate(284.12325867073713,290.2223333333333)" d="M4,0A4,4,0,1,1,-4,0A4,4,0,1,1,4,0" style="fill: black; opacity: 0.3;"></path><path transform="translate(468.72983748603144,290.2223333333333)" d="M4,0A4,4,0,1,1,-4,0A4,4,0,1,1,4,0" style="fill: black; opacity: 0.3;"></path><path transform="translate(194.8345551332403,290.2223333333333)" d="M4,0A4,4,0,1,1,-4,0A4,4,0,1,1,4,0" style="fill: black; opacity: 0.3;"></path><path transform="translate(503.0642847068202,290.2223333333333)" d="M4,0A4,4,0,1,1,-4,0A4,4,0,1,1,4,0" style="fill: black; opacity: 0.3;"></path><path transform="translate(535.7190178098616,290.2223333333333)" d="M4,0A4,4,0,1,1,-4,0A4,4,0,1,1,4,0" style="fill: black; opacity: 0.3;"></path><path transform="translate(340.0165956692099,290.2223333333333)" d="M4,0A4,4,0,1,1,-4,0A4,4,0,1,1,4,0" style="fill: black; opacity: 0.3;"></path><path transform="translate(225.6257678728522,290.2223333333333)" d="M4,0A4,4,0,1,1,-4,0A4,4,0,1,1,4,0" style="fill: black; opacity: 0.3;"></path><path transform="translate(187.1293776437135,261.2001)" d="M4,0A4,4,0,1,1,-4,0A4,4,0,1,1,4,0" style="fill: black; opacity: 0.3;"></path><path transform="translate(245.12887805184522,290.2223333333333)" d="M4,0A4,4,0,1,1,-4,0A4,4,0,1,1,4,0" style="fill: black; opacity: 0.3;"></path><path transform="translate(286.01678084312283,290.2223333333333)" d="M4,0A4,4,0,1,1,-4,0A4,4,0,1,1,4,0" style="fill: black; opacity: 0.3;"></path><path transform="translate(197.14891065412857,290.2223333333333)" d="M4,0A4,4,0,1,1,-4,0A4,4,0,1,1,4,0" style="fill: black; opacity: 0.3;"></path><path transform="translate(291.9447780022816,290.2223333333333)" d="M4,0A4,4,0,1,1,-4,0A4,4,0,1,1,4,0" style="fill: black; opacity: 0.3;"></path><path transform="translate(231.27072236149397,290.2223333333333)" d="M4,0A4,4,0,1,1,-4,0A4,4,0,1,1,4,0" style="fill: black; opacity: 0.3;"></path><path transform="translate(294.746380788292,290.2223333333333)" d="M4,0A4,4,0,1,1,-4,0A4,4,0,1,1,4,0" style="fill: black; opacity: 0.3;"></path><path transform="translate(275.9102770046601,290.2223333333333)" d="M4,0A4,4,0,1,1,-4,0A4,4,0,1,1,4,0" style="fill: black; opacity: 0.3;"></path><path transform="translate(172.4395913388684,275.71121666666664)" d="M4,0A4,4,0,1,1,-4,0A4,4,0,1,1,4,0" style="fill: black; opacity: 0.3;"></path><path transform="translate(160.42900223935825,290.2223333333333)" d="M4,0A4,4,0,1,1,-4,0A4,4,0,1,1,4,0" style="fill: black; opacity: 0.3;"></path><path transform="translate(265.4398383259573,290.2223333333333)" d="M4,0A4,4,0,1,1,-4,0A4,4,0,1,1,4,0" style="fill: black; opacity: 0.3;"></path><path transform="translate(209.41209144934595,290.2223333333333)" d="M4,0A4,4,0,1,1,-4,0A4,4,0,1,1,4,0" style="fill: black; opacity: 0.3;"></path><path transform="translate(351.22373465818947,290.2223333333333)" d="M4,0A4,4,0,1,1,-4,0A4,4,0,1,1,4,0" style="fill: black; opacity: 0.3;"></path><path transform="translate(200.82089740912377,290.2223333333333)" d="M4,0A4,4,0,1,1,-4,0A4,4,0,1,1,4,0" style="fill: black; opacity: 0.3;"></path><path transform="translate(294.51196836846526,290.2223333333333)" d="M4,0A4,4,0,1,1,-4,0A4,4,0,1,1,4,0" style="fill: black; opacity: 0.3;"></path><path transform="translate(425.0753588503668,290.2223333333333)" d="M4,0A4,4,0,1,1,-4,0A4,4,0,1,1,4,0" style="fill: black; opacity: 0.3;"></path><path transform="translate(294.16158014836043,290.2223333333333)" d="M4,0A4,4,0,1,1,-4,0A4,4,0,1,1,4,0" style="fill: black; opacity: 0.3;"></path><path transform="translate(554.919439009162,290.2223333333333)" d="M4,0A4,4,0,1,1,-4,0A4,4,0,1,1,4,0" style="fill: black; opacity: 0.3;"></path><path transform="translate(275.8851850166372,290.2223333333333)" d="M4,0A4,4,0,1,1,-4,0A4,4,0,1,1,4,0" style="fill: black; opacity: 0.3;"></path><path transform="translate(331.3483491862166,290.2223333333333)" d="M4,0A4,4,0,1,1,-4,0A4,4,0,1,1,4,0" style="fill: black; opacity: 0.3;"></path><path transform="translate(259.41250211297717,290.2223333333333)" d="M4,0A4,4,0,1,1,-4,0A4,4,0,1,1,4,0" style="fill: black; opacity: 0.3;"></path><path transform="translate(472.94404687213,290.2223333333333)" d="M4,0A4,4,0,1,1,-4,0A4,4,0,1,1,4,0" style="fill: black; opacity: 0.3;"></path><path transform="translate(321.66873820703,290.2223333333333)" d="M4,0A4,4,0,1,1,-4,0A4,4,0,1,1,4,0" style="fill: black; opacity: 0.3;"></path><path transform="translate(283.8695538134742,290.2223333333333)" d="M4,0A4,4,0,1,1,-4,0A4,4,0,1,1,4,0" style="fill: black; opacity: 0.3;"></path><path transform="translate(296.95616399967366,290.2223333333333)" d="M4,0A4,4,0,1,1,-4,0A4,4,0,1,1,4,0" style="fill: black; opacity: 0.3;"></path><path transform="translate(349.84746315924355,290.2223333333333)" d="M4,0A4,4,0,1,1,-4,0A4,4,0,1,1,4,0" style="fill: black; opacity: 0.3;"></path><path transform="translate(225.69792945785676,290.2223333333333)" d="M4,0A4,4,0,1,1,-4,0A4,4,0,1,1,4,0" style="fill: black; opacity: 0.3;"></path><path transform="translate(315.8411024100111,290.2223333333333)" d="M4,0A4,4,0,1,1,-4,0A4,4,0,1,1,4,0" style="fill: black; opacity: 0.3;"></path><path transform="translate(272.7383457747286,290.2223333333333)" d="M4,0A4,4,0,1,1,-4,0A4,4,0,1,1,4,0" style="fill: black; opacity: 0.3;"></path><path transform="translate(484.1057727759009,290.2223333333333)" d="M4,0A4,4,0,1,1,-4,0A4,4,0,1,1,4,0" style="fill: black; opacity: 0.3;"></path><path transform="translate(238.10172001680462,290.2223333333333)" d="M4,0A4,4,0,1,1,-4,0A4,4,0,1,1,4,0" style="fill: black; opacity: 0.3;"></path><path transform="translate(292.5693563068903,290.2223333333333)" d="M4,0A4,4,0,1,1,-4,0A4,4,0,1,1,4,0" style="fill: black; opacity: 0.3;"></path><path transform="translate(202.60140826854172,290.2223333333333)" d="M4,0A4,4,0,1,1,-4,0A4,4,0,1,1,4,0" style="fill: black; opacity: 0.3;"></path><path transform="translate(276.76760577271256,290.2223333333333)" d="M4,0A4,4,0,1,1,-4,0A4,4,0,1,1,4,0" style="fill: black; opacity: 0.3;"></path><path transform="translate(177.3714706563496,290.2223333333333)" d="M4,0A4,4,0,1,1,-4,0A4,4,0,1,1,4,0" style="fill: black; opacity: 0.3;"></path><path transform="translate(452.0377228073612,290.2223333333333)" d="M4,0A4,4,0,1,1,-4,0A4,4,0,1,1,4,0" style="fill: black; opacity: 0.3;"></path><path transform="translate(267.0093309604638,290.2223333333333)" d="M4,0A4,4,0,1,1,-4,0A4,4,0,1,1,4,0" style="fill: black; opacity: 0.3;"></path><path transform="translate(267.8888095255847,290.2223333333333)" d="M4,0A4,4,0,1,1,-4,0A4,4,0,1,1,4,0" style="fill: black; opacity: 0.3;"></path><path transform="translate(461.1343766846357,290.2223333333333)" d="M4,0A4,4,0,1,1,-4,0A4,4,0,1,1,4,0" style="fill: black; opacity: 0.3;"></path><path transform="translate(236.0116697957151,290.2223333333333)" d="M4,0A4,4,0,1,1,-4,0A4,4,0,1,1,4,0" style="fill: black; opacity: 0.3;"></path><path transform="translate(423.1237040536965,290.2223333333333)" d="M4,0A4,4,0,1,1,-4,0A4,4,0,1,1,4,0" style="fill: black; opacity: 0.3;"></path><path transform="translate(419.9485755805615,290.2223333333333)" d="M4,0A4,4,0,1,1,-4,0A4,4,0,1,1,4,0" style="fill: black; opacity: 0.3;"></path><path transform="translate(473.44935095768784,290.2223333333333)" d="M4,0A4,4,0,1,1,-4,0A4,4,0,1,1,4,0" style="fill: black; opacity: 0.3;"></path><path transform="translate(0,275.71121666666664)" d="M4,0A4,4,0,1,1,-4,0A4,4,0,1,1,4,0" style="fill: black; opacity: 0.3;"></path><path transform="translate(224.58172393007703,290.2223333333333)" d="M4,0A4,4,0,1,1,-4,0A4,4,0,1,1,4,0" style="fill: black; opacity: 0.3;"></path><path transform="translate(280.5752354925778,290.2223333333333)" d="M4,0A4,4,0,1,1,-4,0A4,4,0,1,1,4,0" style="fill: black; opacity: 0.3;"></path><path transform="translate(56.1544761054104,290.2223333333333)" d="M4,0A4,4,0,1,1,-4,0A4,4,0,1,1,4,0" style="fill: black; opacity: 0.3;"></path><path transform="translate(251.4417800021267,290.2223333333333)" d="M4,0A4,4,0,1,1,-4,0A4,4,0,1,1,4,0" style="fill: black; opacity: 0.3;"></path><path transform="translate(233.0647947294612,290.2223333333333)" d="M4,0A4,4,0,1,1,-4,0A4,4,0,1,1,4,0" style="fill: black; opacity: 0.3;"></path><path transform="translate(250.76265346357894,290.2223333333333)" d="M4,0A4,4,0,1,1,-4,0A4,4,0,1,1,4,0" style="fill: black; opacity: 0.3;"></path><path transform="translate(301.4003615747135,290.2223333333333)" d="M4,0A4,4,0,1,1,-4,0A4,4,0,1,1,4,0" style="fill: black; opacity: 0.3;"></path><path transform="translate(371.0671541694791,290.2223333333333)" d="M4,0A4,4,0,1,1,-4,0A4,4,0,1,1,4,0" style="fill: black; opacity: 0.3;"></path><path transform="translate(265.50650150117957,290.2223333333333)" d="M4,0A4,4,0,1,1,-4,0A4,4,0,1,1,4,0" style="fill: black; opacity: 0.3;"></path><path transform="translate(232.15963893419675,290.2223333333333)" d="M4,0A4,4,0,1,1,-4,0A4,4,0,1,1,4,0" style="fill: black; opacity: 0.3;"></path><path transform="translate(224.15861937612738,290.2223333333333)" d="M4,0A4,4,0,1,1,-4,0A4,4,0,1,1,4,0" style="fill: black; opacity: 0.3;"></path><path transform="translate(289.00945476485657,290.2223333333333)" d="M4,0A4,4,0,1,1,-4,0A4,4,0,1,1,4,0" style="fill: black; opacity: 0.3;"></path><path transform="translate(217.21228153393085,290.2223333333333)" d="M4,0A4,4,0,1,1,-4,0A4,4,0,1,1,4,0" style="fill: black; opacity: 0.3;"></path><path transform="translate(189.4690063140496,290.2223333333333)" d="M4,0A4,4,0,1,1,-4,0A4,4,0,1,1,4,0" style="fill: black; opacity: 0.3;"></path><path transform="translate(224.91271131634895,290.2223333333333)" d="M4,0A4,4,0,1,1,-4,0A4,4,0,1,1,4,0" style="fill: black; opacity: 0.3;"></path><path transform="translate(279.87707613153304,290.2223333333333)" d="M4,0A4,4,0,1,1,-4,0A4,4,0,1,1,4,0" style="fill: black; opacity: 0.3;"></path><path transform="translate(259.41250211297717,290.2223333333333)" d="M4,0A4,4,0,1,1,-4,0A4,4,0,1,1,4,0" style="fill: black; opacity: 0.3;"></path><path transform="translate(286.75980399836624,290.2223333333333)" d="M4,0A4,4,0,1,1,-4,0A4,4,0,1,1,4,0" style="fill: black; opacity: 0.3;"></path><path transform="translate(161.1765697707238,290.2223333333333)" d="M4,0A4,4,0,1,1,-4,0A4,4,0,1,1,4,0" style="fill: black; opacity: 0.3;"></path><path transform="translate(24.423051168153407,275.71121666666664)" d="M4,0A4,4,0,1,1,-4,0A4,4,0,1,1,4,0" style="fill: black; opacity: 0.3;"></path><path transform="translate(317.63194743365386,290.2223333333333)" d="M4,0A4,4,0,1,1,-4,0A4,4,0,1,1,4,0" style="fill: black; opacity: 0.3;"></path><path transform="translate(355.92413777378795,290.2223333333333)" d="M4,0A4,4,0,1,1,-4,0A4,4,0,1,1,4,0" style="fill: black; opacity: 0.3;"></path><path transform="translate(204.19486764393352,290.2223333333333)" d="M4,0A4,4,0,1,1,-4,0A4,4,0,1,1,4,0" style="fill: black; opacity: 0.3;"></path><path transform="translate(12.281088572214431,261.2001)" d="M4,0A4,4,0,1,1,-4,0A4,4,0,1,1,4,0" style="fill: black; opacity: 0.3;"></path><path transform="translate(236.12974167619046,290.2223333333333)" d="M4,0A4,4,0,1,1,-4,0A4,4,0,1,1,4,0" style="fill: black; opacity: 0.3;"></path><path transform="translate(261.4447728372783,290.2223333333333)" d="M4,0A4,4,0,1,1,-4,0A4,4,0,1,1,4,0" style="fill: black; opacity: 0.3;"></path><path transform="translate(264.07994031815565,290.2223333333333)" d="M4,0A4,4,0,1,1,-4,0A4,4,0,1,1,4,0" style="fill: black; opacity: 0.3;"></path><path transform="translate(302.52822721131895,290.2223333333333)" d="M4,0A4,4,0,1,1,-4,0A4,4,0,1,1,4,0" style="fill: black; opacity: 0.3;"></path><path transform="translate(245.31678837030265,290.2223333333333)" d="M4,0A4,4,0,1,1,-4,0A4,4,0,1,1,4,0" style="fill: black; opacity: 0.3;"></path><path transform="translate(259.41250211297717,290.2223333333333)" d="M4,0A4,4,0,1,1,-4,0A4,4,0,1,1,4,0" style="fill: black; opacity: 0.3;"></path><path transform="translate(207.1869183065878,290.2223333333333)" d="M4,0A4,4,0,1,1,-4,0A4,4,0,1,1,4,0" style="fill: black; opacity: 0.3;"></path><path transform="translate(274.53510891991084,290.2223333333333)" d="M4,0A4,4,0,1,1,-4,0A4,4,0,1,1,4,0" style="fill: black; opacity: 0.3;"></path><path transform="translate(278.8612812561847,290.2223333333333)" d="M4,0A4,4,0,1,1,-4,0A4,4,0,1,1,4,0" style="fill: black; opacity: 0.3;"></path><path transform="translate(217.71589371236584,290.2223333333333)" d="M4,0A4,4,0,1,1,-4,0A4,4,0,1,1,4,0" style="fill: black; opacity: 0.3;"></path><path transform="translate(110.56054194825941,275.71121666666664)" d="M4,0A4,4,0,1,1,-4,0A4,4,0,1,1,4,0" style="fill: black; opacity: 0.3;"></path><path transform="translate(220.15198230050524,290.2223333333333)" d="M4,0A4,4,0,1,1,-4,0A4,4,0,1,1,4,0" style="fill: black; opacity: 0.3;"></path><path transform="translate(338.96783284067425,290.2223333333333)" d="M4,0A4,4,0,1,1,-4,0A4,4,0,1,1,4,0" style="fill: black; opacity: 0.3;"></path><path transform="translate(355.560496377059,290.2223333333333)" d="M4,0A4,4,0,1,1,-4,0A4,4,0,1,1,4,0" style="fill: black; opacity: 0.3;"></path><path transform="translate(277.2874706633391,290.2223333333333)" d="M4,0A4,4,0,1,1,-4,0A4,4,0,1,1,4,0" style="fill: black; opacity: 0.3;"></path><path transform="translate(185.66514784467105,290.2223333333333)" d="M4,0A4,4,0,1,1,-4,0A4,4,0,1,1,4,0" style="fill: black; opacity: 0.3;"></path><path transform="translate(317.50287226007595,290.2223333333333)" d="M4,0A4,4,0,1,1,-4,0A4,4,0,1,1,4,0" style="fill: black; opacity: 0.3;"></path><path transform="translate(229.29903238601526,290.2223333333333)" d="M4,0A4,4,0,1,1,-4,0A4,4,0,1,1,4,0" style="fill: black; opacity: 0.3;"></path><path transform="translate(289.3914015090365,290.2223333333333)" d="M4,0A4,4,0,1,1,-4,0A4,4,0,1,1,4,0" style="fill: black; opacity: 0.3;"></path><path transform="translate(321.42566049760393,290.2223333333333)" d="M4,0A4,4,0,1,1,-4,0A4,4,0,1,1,4,0" style="fill: black; opacity: 0.3;"></path><path transform="translate(353.4945821569659,290.2223333333333)" d="M4,0A4,4,0,1,1,-4,0A4,4,0,1,1,4,0" style="fill: black; opacity: 0.3;"></path><path transform="translate(208.49711383371033,290.2223333333333)" d="M4,0A4,4,0,1,1,-4,0A4,4,0,1,1,4,0" style="fill: black; opacity: 0.3;"></path><path transform="translate(355.58729610959335,290.2223333333333)" d="M4,0A4,4,0,1,1,-4,0A4,4,0,1,1,4,0" style="fill: black; opacity: 0.3;"></path><path transform="translate(246.02906156540436,290.2223333333333)" d="M4,0A4,4,0,1,1,-4,0A4,4,0,1,1,4,0" style="fill: black; opacity: 0.3;"></path><path transform="translate(324.009822884817,290.2223333333333)" d="M4,0A4,4,0,1,1,-4,0A4,4,0,1,1,4,0" style="fill: black; opacity: 0.3;"></path><path transform="translate(259.41250211297717,290.2223333333333)" d="M4,0A4,4,0,1,1,-4,0A4,4,0,1,1,4,0" style="fill: black; opacity: 0.3;"></path><path transform="translate(253.01274196647853,290.2223333333333)" d="M4,0A4,4,0,1,1,-4,0A4,4,0,1,1,4,0" style="fill: black; opacity: 0.3;"></path><path transform="translate(275.1912541329055,290.2223333333333)" d="M4,0A4,4,0,1,1,-4,0A4,4,0,1,1,4,0" style="fill: black; opacity: 0.3;"></path><path transform="translate(266.3413682722267,290.2223333333333)" d="M4,0A4,4,0,1,1,-4,0A4,4,0,1,1,4,0" style="fill: black; opacity: 0.3;"></path><path transform="translate(154.34636542265736,290.2223333333333)" d="M4,0A4,4,0,1,1,-4,0A4,4,0,1,1,4,0" style="fill: black; opacity: 0.3;"></path><path transform="translate(580.4446666666666,232.17786666666666)" d="M4,0A4,4,0,1,1,-4,0A4,4,0,1,1,4,0" style="fill: black; opacity: 0.3;"></path><path transform="translate(175.4181099151509,290.2223333333333)" d="M4,0A4,4,0,1,1,-4,0A4,4,0,1,1,4,0" style="fill: black; opacity: 0.3;"></path><path transform="translate(234.51146532014855,290.2223333333333)" d="M4,0A4,4,0,1,1,-4,0A4,4,0,1,1,4,0" style="fill: black; opacity: 0.3;"></path><path transform="translate(302.6512390006786,290.2223333333333)" d="M4,0A4,4,0,1,1,-4,0A4,4,0,1,1,4,0" style="fill: black; opacity: 0.3;"></path><path transform="translate(318.8904947295356,290.2223333333333)" d="M4,0A4,4,0,1,1,-4,0A4,4,0,1,1,4,0" style="fill: black; opacity: 0.3;"></path><path transform="translate(313.54574761871726,290.2223333333333)" d="M4,0A4,4,0,1,1,-4,0A4,4,0,1,1,4,0" style="fill: black; opacity: 0.3;"></path><path transform="translate(231.3851676875998,290.2223333333333)" d="M4,0A4,4,0,1,1,-4,0A4,4,0,1,1,4,0" style="fill: black; opacity: 0.3;"></path><path transform="translate(97.20864553221305,290.2223333333333)" d="M4,0A4,4,0,1,1,-4,0A4,4,0,1,1,4,0" style="fill: black; opacity: 0.3;"></path><path transform="translate(267.9177199120338,290.2223333333333)" d="M4,0A4,4,0,1,1,-4,0A4,4,0,1,1,4,0" style="fill: black; opacity: 0.3;"></path><path transform="translate(191.59960538781039,290.2223333333333)" d="M4,0A4,4,0,1,1,-4,0A4,4,0,1,1,4,0" style="fill: black; opacity: 0.3;"></path><path transform="translate(169.68358310464416,290.2223333333333)" d="M4,0A4,4,0,1,1,-4,0A4,4,0,1,1,4,0" style="fill: black; opacity: 0.3;"></path><path transform="translate(202.41641728045536,275.71121666666664)" d="M4,0A4,4,0,1,1,-4,0A4,4,0,1,1,4,0" style="fill: black; opacity: 0.3;"></path><path transform="translate(318.20605701535084,290.2223333333333)" d="M4,0A4,4,0,1,1,-4,0A4,4,0,1,1,4,0" style="fill: black; opacity: 0.3;"></path><path transform="translate(273.89933023809795,290.2223333333333)" d="M4,0A4,4,0,1,1,-4,0A4,4,0,1,1,4,0" style="fill: black; opacity: 0.3;"></path><path transform="translate(214.77256135610224,290.2223333333333)" d="M4,0A4,4,0,1,1,-4,0A4,4,0,1,1,4,0" style="fill: black; opacity: 0.3;"></path><path transform="translate(367.287654119539,290.2223333333333)" d="M4,0A4,4,0,1,1,-4,0A4,4,0,1,1,4,0" style="fill: black; opacity: 0.3;"></path><path transform="translate(264.30909754792555,290.2223333333333)" d="M4,0A4,4,0,1,1,-4,0A4,4,0,1,1,4,0" style="fill: black; opacity: 0.3;"></path><path transform="translate(223.10823183679557,275.71121666666664)" d="M4,0A4,4,0,1,1,-4,0A4,4,0,1,1,4,0" style="fill: black; opacity: 0.3;"></path><path transform="translate(211.22048498474618,275.71121666666664)" d="M4,0A4,4,0,1,1,-4,0A4,4,0,1,1,4,0" style="fill: black; opacity: 0.3;"></path><path transform="translate(104.59714322005901,275.71121666666664)" d="M4,0A4,4,0,1,1,-4,0A4,4,0,1,1,4,0" style="fill: black; opacity: 0.3;"></path><path transform="translate(314.5293428476447,290.2223333333333)" d="M4,0A4,4,0,1,1,-4,0A4,4,0,1,1,4,0" style="fill: black; opacity: 0.3;"></path><path transform="translate(287.5481160867436,290.2223333333333)" d="M4,0A4,4,0,1,1,-4,0A4,4,0,1,1,4,0" style="fill: black; opacity: 0.3;"></path><path transform="translate(227.526890255378,290.2223333333333)" d="M4,0A4,4,0,1,1,-4,0A4,4,0,1,1,4,0" style="fill: black; opacity: 0.3;"></path><path transform="translate(226.3365508062937,290.2223333333333)" d="M4,0A4,4,0,1,1,-4,0A4,4,0,1,1,4,0" style="fill: black; opacity: 0.3;"></path><path transform="translate(291.3953334592644,290.2223333333333)" d="M4,0A4,4,0,1,1,-4,0A4,4,0,1,1,4,0" style="fill: black; opacity: 0.3;"></path><path transform="translate(229.3474458420739,290.2223333333333)" d="M4,0A4,4,0,1,1,-4,0A4,4,0,1,1,4,0" style="fill: black; opacity: 0.3;"></path><path transform="translate(261.4447728372783,290.2223333333333)" d="M4,0A4,4,0,1,1,-4,0A4,4,0,1,1,4,0" style="fill: black; opacity: 0.3;"></path><path transform="translate(259.41250211297717,290.2223333333333)" d="M4,0A4,4,0,1,1,-4,0A4,4,0,1,1,4,0" style="fill: black; opacity: 0.3;"></path><path transform="translate(272.07001769352115,290.2223333333333)" d="M4,0A4,4,0,1,1,-4,0A4,4,0,1,1,4,0" style="fill: black; opacity: 0.3;"></path><path transform="translate(70.58167175810675,290.2223333333333)" d="M4,0A4,4,0,1,1,-4,0A4,4,0,1,1,4,0" style="fill: black; opacity: 0.3;"></path><path transform="translate(308.9714833187279,290.2223333333333)" d="M4,0A4,4,0,1,1,-4,0A4,4,0,1,1,4,0" style="fill: black; opacity: 0.3;"></path><path transform="translate(192.82798647372897,290.2223333333333)" d="M4,0A4,4,0,1,1,-4,0A4,4,0,1,1,4,0" style="fill: black; opacity: 0.3;"></path><path transform="translate(116.78452315524704,290.2223333333333)" d="M4,0A4,4,0,1,1,-4,0A4,4,0,1,1,4,0" style="fill: black; opacity: 0.3;"></path><path transform="translate(300.99367121871734,290.2223333333333)" d="M4,0A4,4,0,1,1,-4,0A4,4,0,1,1,4,0" style="fill: black; opacity: 0.3;"></path><path transform="translate(263.02112447708544,290.2223333333333)" d="M4,0A4,4,0,1,1,-4,0A4,4,0,1,1,4,0" style="fill: black; opacity: 0.3;"></path><path transform="translate(222.27200935769136,261.2001)" d="M4,0A4,4,0,1,1,-4,0A4,4,0,1,1,4,0" style="fill: black; opacity: 0.3;"></path><path transform="translate(261.4447728372783,290.2223333333333)" d="M4,0A4,4,0,1,1,-4,0A4,4,0,1,1,4,0" style="fill: black; opacity: 0.3;"></path><path transform="translate(202.94253934663493,290.2223333333333)" d="M4,0A4,4,0,1,1,-4,0A4,4,0,1,1,4,0" style="fill: black; opacity: 0.3;"></path><path transform="translate(492.66421448069264,290.2223333333333)" d="M4,0A4,4,0,1,1,-4,0A4,4,0,1,1,4,0" style="fill: black; opacity: 0.3;"></path><path transform="translate(402.08176178996575,290.2223333333333)" d="M4,0A4,4,0,1,1,-4,0A4,4,0,1,1,4,0" style="fill: black; opacity: 0.3;"></path><path transform="translate(291.4573920775577,290.2223333333333)" d="M4,0A4,4,0,1,1,-4,0A4,4,0,1,1,4,0" style="fill: black; opacity: 0.3;"></path><path transform="translate(325.69636412551966,290.2223333333333)" d="M4,0A4,4,0,1,1,-4,0A4,4,0,1,1,4,0" style="fill: black; opacity: 0.3;"></path><path transform="translate(296.0970757837689,290.2223333333333)" d="M4,0A4,4,0,1,1,-4,0A4,4,0,1,1,4,0" style="fill: black; opacity: 0.3;"></path><path transform="translate(304.94696164444764,290.2223333333333)" d="M4,0A4,4,0,1,1,-4,0A4,4,0,1,1,4,0" style="fill: black; opacity: 0.3;"></path><path transform="translate(253.68385269168277,290.2223333333333)" d="M4,0A4,4,0,1,1,-4,0A4,4,0,1,1,4,0" style="fill: black; opacity: 0.3;"></path><path transform="translate(222.27200935769136,261.2001)" d="M4,0A4,4,0,1,1,-4,0A4,4,0,1,1,4,0" style="fill: black; opacity: 0.3;"></path><path transform="translate(259.41250211297717,290.2223333333333)" d="M4,0A4,4,0,1,1,-4,0A4,4,0,1,1,4,0" style="fill: black; opacity: 0.3;"></path><path transform="translate(259.41250211297717,290.2223333333333)" d="M4,0A4,4,0,1,1,-4,0A4,4,0,1,1,4,0" style="fill: black; opacity: 0.3;"></path><path transform="translate(237.96139016440964,290.2223333333333)" d="M4,0A4,4,0,1,1,-4,0A4,4,0,1,1,4,0" style="fill: black; opacity: 0.3;"></path><path transform="translate(259.4125021129772,290.2223333333333)" d="M4,0A4,4,0,1,1,-4,0A4,4,0,1,1,4,0" style="fill: black; opacity: 0.3;"></path><path transform="translate(387.61268039902603,290.2223333333333)" d="M4,0A4,4,0,1,1,-4,0A4,4,0,1,1,4,0" style="fill: black; opacity: 0.3;"></path><path transform="translate(128.39531235672527,290.2223333333333)" d="M4,0A4,4,0,1,1,-4,0A4,4,0,1,1,4,0" style="fill: black; opacity: 0.3;"></path><path transform="translate(167.06427234373078,290.2223333333333)" d="M4,0A4,4,0,1,1,-4,0A4,4,0,1,1,4,0" style="fill: black; opacity: 0.3;"></path><path transform="translate(320.21890760463964,290.2223333333333)" d="M4,0A4,4,0,1,1,-4,0A4,4,0,1,1,4,0" style="fill: black; opacity: 0.3;"></path><path transform="translate(368.07227613266303,290.2223333333333)" d="M4,0A4,4,0,1,1,-4,0A4,4,0,1,1,4,0" style="fill: black; opacity: 0.3;"></path><path transform="translate(207.08610414382434,275.71121666666664)" d="M4,0A4,4,0,1,1,-4,0A4,4,0,1,1,4,0" style="fill: black; opacity: 0.3;"></path><path transform="translate(269.205692982874,290.2223333333333)" d="M4,0A4,4,0,1,1,-4,0A4,4,0,1,1,4,0" style="fill: black; opacity: 0.3;"></path><path transform="translate(259.41250211297717,290.2223333333333)" d="M4,0A4,4,0,1,1,-4,0A4,4,0,1,1,4,0" style="fill: black; opacity: 0.3;"></path><path transform="translate(239.6254981371017,290.2223333333333)" d="M4,0A4,4,0,1,1,-4,0A4,4,0,1,1,4,0" style="fill: black; opacity: 0.3;"></path><path transform="translate(236.12974167619046,275.71121666666664)" d="M4,0A4,4,0,1,1,-4,0A4,4,0,1,1,4,0" style="fill: black; opacity: 0.3;"></path><path transform="translate(259.41250211297717,290.2223333333333)" d="M4,0A4,4,0,1,1,-4,0A4,4,0,1,1,4,0" style="fill: black; opacity: 0.3;"></path><path transform="translate(309.0076890117398,290.2223333333333)" d="M4,0A4,4,0,1,1,-4,0A4,4,0,1,1,4,0" style="fill: black; opacity: 0.3;"></path><path transform="translate(287.57312721312735,290.2223333333333)" d="M4,0A4,4,0,1,1,-4,0A4,4,0,1,1,4,0" style="fill: black; opacity: 0.3;"></path><path transform="translate(265.39806326300874,290.2223333333333)" d="M4,0A4,4,0,1,1,-4,0A4,4,0,1,1,4,0" style="fill: black; opacity: 0.3;"></path><path transform="translate(232.20212794915528,290.2223333333333)" d="M4,0A4,4,0,1,1,-4,0A4,4,0,1,1,4,0" style="fill: black; opacity: 0.3;"></path><path transform="translate(231.07374173407894,290.2223333333333)" d="M4,0A4,4,0,1,1,-4,0A4,4,0,1,1,4,0" style="fill: black; opacity: 0.3;"></path><path transform="translate(259.41250211297717,290.2223333333333)" d="M4,0A4,4,0,1,1,-4,0A4,4,0,1,1,4,0" style="fill: black; opacity: 0.3;"></path><path transform="translate(228.36882153059491,290.2223333333333)" d="M4,0A4,4,0,1,1,-4,0A4,4,0,1,1,4,0" style="fill: black; opacity: 0.3;"></path><path transform="translate(236.12974167619046,290.2223333333333)" d="M4,0A4,4,0,1,1,-4,0A4,4,0,1,1,4,0" style="fill: black; opacity: 0.3;"></path><path transform="translate(205.38602799117137,290.2223333333333)" d="M4,0A4,4,0,1,1,-4,0A4,4,0,1,1,4,0" style="fill: black; opacity: 0.3;"></path><path transform="translate(259.41250211297717,290.2223333333333)" d="M4,0A4,4,0,1,1,-4,0A4,4,0,1,1,4,0" style="fill: black; opacity: 0.3;"></path><path transform="translate(238.16201240049162,290.2223333333333)" d="M4,0A4,4,0,1,1,-4,0A4,4,0,1,1,4,0" style="fill: black; opacity: 0.3;"></path><path transform="translate(259.41250211297717,290.2223333333333)" d="M4,0A4,4,0,1,1,-4,0A4,4,0,1,1,4,0" style="fill: black; opacity: 0.3;"></path><path transform="translate(353.51901920381147,290.2223333333333)" d="M4,0A4,4,0,1,1,-4,0A4,4,0,1,1,4,0" style="fill: black; opacity: 0.3;"></path><path transform="translate(273.1589834086043,290.2223333333333)" d="M4,0A4,4,0,1,1,-4,0A4,4,0,1,1,4,0" style="fill: black; opacity: 0.3;"></path><path transform="translate(259.41250211297717,290.2223333333333)" d="M4,0A4,4,0,1,1,-4,0A4,4,0,1,1,4,0" style="fill: black; opacity: 0.3;"></path><path transform="translate(288.33615563817335,290.2223333333333)" d="M4,0A4,4,0,1,1,-4,0A4,4,0,1,1,4,0" style="fill: black; opacity: 0.3;"></path><path transform="translate(213.31193389611713,290.2223333333333)" d="M4,0A4,4,0,1,1,-4,0A4,4,0,1,1,4,0" style="fill: black; opacity: 0.3;"></path><path transform="translate(286.75980399836624,290.2223333333333)" d="M4,0A4,4,0,1,1,-4,0A4,4,0,1,1,4,0" style="fill: black; opacity: 0.3;"></path><path transform="translate(259.41250211297717,290.2223333333333)" d="M4,0A4,4,0,1,1,-4,0A4,4,0,1,1,4,0" style="fill: black; opacity: 0.3;"></path><path transform="translate(532.7151561851069,0)" d="M4,0A4,4,0,1,1,-4,0A4,4,0,1,1,4,0" style="fill: black; opacity: 0.3;"></path><path transform="translate(284.85715698336924,290.2223333333333)" d="M4,0A4,4,0,1,1,-4,0A4,4,0,1,1,4,0" style="fill: black; opacity: 0.3;"></path><path transform="translate(278.5429647682766,290.2223333333333)" d="M4,0A4,4,0,1,1,-4,0A4,4,0,1,1,4,0" style="fill: black; opacity: 0.3;"></path><path transform="translate(258.3798258905491,290.2223333333333)" d="M4,0A4,4,0,1,1,-4,0A4,4,0,1,1,4,0" style="fill: black; opacity: 0.3;"></path><path transform="translate(242.2433116552011,290.2223333333333)" d="M4,0A4,4,0,1,1,-4,0A4,4,0,1,1,4,0" style="fill: black; opacity: 0.3;"></path><path transform="translate(237.7938496488825,290.2223333333333)" d="M4,0A4,4,0,1,1,-4,0A4,4,0,1,1,4,0" style="fill: black; opacity: 0.3;"></path><path transform="translate(300.9805770649197,290.2223333333333)" d="M4,0A4,4,0,1,1,-4,0A4,4,0,1,1,4,0" style="fill: black; opacity: 0.3;"></path><path transform="translate(277.53205834412853,290.2223333333333)" d="M4,0A4,4,0,1,1,-4,0A4,4,0,1,1,4,0" style="fill: black; opacity: 0.3;"></path><path transform="translate(143.58212148365266,290.2223333333333)" d="M4,0A4,4,0,1,1,-4,0A4,4,0,1,1,4,0" style="fill: black; opacity: 0.3;"></path><path transform="translate(409.342320218094,290.2223333333333)" d="M4,0A4,4,0,1,1,-4,0A4,4,0,1,1,4,0" style="fill: black; opacity: 0.3;"></path><path transform="translate(265.39806326300874,290.2223333333333)" d="M4,0A4,4,0,1,1,-4,0A4,4,0,1,1,4,0" style="fill: black; opacity: 0.3;"></path><path transform="translate(259.41250211297717,290.2223333333333)" d="M4,0A4,4,0,1,1,-4,0A4,4,0,1,1,4,0" style="fill: black; opacity: 0.3;"></path><path transform="translate(212.84698123940373,261.2001)" d="M4,0A4,4,0,1,1,-4,0A4,4,0,1,1,4,0" style="fill: black; opacity: 0.3;"></path><path transform="translate(344.95177911038076,290.2223333333333)" d="M4,0A4,4,0,1,1,-4,0A4,4,0,1,1,4,0" style="fill: black; opacity: 0.3;"></path><path transform="translate(273.1589834086043,290.2223333333333)" d="M4,0A4,4,0,1,1,-4,0A4,4,0,1,1,4,0" style="fill: black; opacity: 0.3;"></path><path transform="translate(401.1257368763287,290.2223333333333)" d="M4,0A4,4,0,1,1,-4,0A4,4,0,1,1,4,0" style="fill: black; opacity: 0.3;"></path><path transform="translate(189.5069278882465,290.2223333333333)" d="M4,0A4,4,0,1,1,-4,0A4,4,0,1,1,4,0" style="fill: black; opacity: 0.3;"></path><path transform="translate(294.18192724396704,290.2223333333333)" d="M4,0A4,4,0,1,1,-4,0A4,4,0,1,1,4,0" style="fill: black; opacity: 0.3;"></path><path transform="translate(323.6546184545988,290.2223333333333)" d="M4,0A4,4,0,1,1,-4,0A4,4,0,1,1,4,0" style="fill: black; opacity: 0.3;"></path><path transform="translate(251.13834762743463,290.2223333333333)" d="M4,0A4,4,0,1,1,-4,0A4,4,0,1,1,4,0" style="fill: black; opacity: 0.3;"></path><path transform="translate(316.5643794859485,290.2223333333333)" d="M4,0A4,4,0,1,1,-4,0A4,4,0,1,1,4,0" style="fill: black; opacity: 0.3;"></path><path transform="translate(150.752604810767,290.2223333333333)" d="M4,0A4,4,0,1,1,-4,0A4,4,0,1,1,4,0" style="fill: black; opacity: 0.3;"></path><path transform="translate(227.7847849198528,290.2223333333333)" d="M4,0A4,4,0,1,1,-4,0A4,4,0,1,1,4,0" style="fill: black; opacity: 0.3;"></path><path transform="translate(263.02112447708544,290.2223333333333)" d="M4,0A4,4,0,1,1,-4,0A4,4,0,1,1,4,0" style="fill: black; opacity: 0.3;"></path><path transform="translate(263.02112447708544,290.2223333333333)" d="M4,0A4,4,0,1,1,-4,0A4,4,0,1,1,4,0" style="fill: black; opacity: 0.3;"></path><path transform="translate(261.4447728372783,290.2223333333333)" d="M4,0A4,4,0,1,1,-4,0A4,4,0,1,1,4,0" style="fill: black; opacity: 0.3;"></path><path transform="translate(281.5506030208362,290.2223333333333)" d="M4,0A4,4,0,1,1,-4,0A4,4,0,1,1,4,0" style="fill: black; opacity: 0.3;"></path><path transform="translate(272.07001769352115,290.2223333333333)" d="M4,0A4,4,0,1,1,-4,0A4,4,0,1,1,4,0" style="fill: black; opacity: 0.3;"></path><path transform="translate(23.014994740408568,290.2223333333333)" d="M4,0A4,4,0,1,1,-4,0A4,4,0,1,1,4,0" style="fill: black; opacity: 0.3;"></path><path transform="translate(399.33941218398036,290.2223333333333)" d="M4,0A4,4,0,1,1,-4,0A4,4,0,1,1,4,0" style="fill: black; opacity: 0.3;"></path><path transform="translate(284.20642750512116,290.2223333333333)" d="M4,0A4,4,0,1,1,-4,0A4,4,0,1,1,4,0" style="fill: black; opacity: 0.3;"></path><path transform="translate(263.02112447708544,290.2223333333333)" d="M4,0A4,4,0,1,1,-4,0A4,4,0,1,1,4,0" style="fill: black; opacity: 0.3;"></path><path transform="translate(282.51176407828484,290.2223333333333)" d="M4,0A4,4,0,1,1,-4,0A4,4,0,1,1,4,0" style="fill: black; opacity: 0.3;"></path><path transform="translate(142.53143700106352,275.71121666666664)" d="M4,0A4,4,0,1,1,-4,0A4,4,0,1,1,4,0" style="fill: black; opacity: 0.3;"></path><path transform="translate(143.23015972730008,290.2223333333333)" d="M4,0A4,4,0,1,1,-4,0A4,4,0,1,1,4,0" style="fill: black; opacity: 0.3;"></path><path transform="translate(319.2897787089963,290.2223333333333)" d="M4,0A4,4,0,1,1,-4,0A4,4,0,1,1,4,0" style="fill: black; opacity: 0.3;"></path><path transform="translate(318.4767837074318,290.2223333333333)" d="M4,0A4,4,0,1,1,-4,0A4,4,0,1,1,4,0" style="fill: black; opacity: 0.3;"></path><path transform="translate(214.60948408203743,290.2223333333333)" d="M4,0A4,4,0,1,1,-4,0A4,4,0,1,1,4,0" style="fill: black; opacity: 0.3;"></path><path transform="translate(297.3850488546091,290.2223333333333)" d="M4,0A4,4,0,1,1,-4,0A4,4,0,1,1,4,0" style="fill: black; opacity: 0.3;"></path><path transform="translate(266.44546275403326,290.2223333333333)" d="M4,0A4,4,0,1,1,-4,0A4,4,0,1,1,4,0" style="fill: black; opacity: 0.3;"></path><path transform="translate(259.08536873611416,290.2223333333333)" d="M4,0A4,4,0,1,1,-4,0A4,4,0,1,1,4,0" style="fill: black; opacity: 0.3;"></path><path transform="translate(392.65288048928784,290.2223333333333)" d="M4,0A4,4,0,1,1,-4,0A4,4,0,1,1,4,0" style="fill: black; opacity: 0.3;"></path><path transform="translate(337.20488935225393,290.2223333333333)" d="M4,0A4,4,0,1,1,-4,0A4,4,0,1,1,4,0" style="fill: black; opacity: 0.3;"></path><path transform="translate(263.2234434012162,290.2223333333333)" d="M4,0A4,4,0,1,1,-4,0A4,4,0,1,1,4,0" style="fill: black; opacity: 0.3;"></path><path transform="translate(196.51399104117286,290.2223333333333)" d="M4,0A4,4,0,1,1,-4,0A4,4,0,1,1,4,0" style="fill: black; opacity: 0.3;"></path><path transform="translate(248.81196091785063,290.2223333333333)" d="M4,0A4,4,0,1,1,-4,0A4,4,0,1,1,4,0" style="fill: black; opacity: 0.3;"></path><path transform="translate(272.39892805748525,290.2223333333333)" d="M4,0A4,4,0,1,1,-4,0A4,4,0,1,1,4,0" style="fill: black; opacity: 0.3;"></path><path transform="translate(245.80263716297833,290.2223333333333)" d="M4,0A4,4,0,1,1,-4,0A4,4,0,1,1,4,0" style="fill: black; opacity: 0.3;"></path><path transform="translate(255.32031172907477,290.2223333333333)" d="M4,0A4,4,0,1,1,-4,0A4,4,0,1,1,4,0" style="fill: black; opacity: 0.3;"></path><path transform="translate(268.3736389965279,290.2223333333333)" d="M4,0A4,4,0,1,1,-4,0A4,4,0,1,1,4,0" style="fill: black; opacity: 0.3;"></path><path transform="translate(210.41213808050026,290.2223333333333)" d="M4,0A4,4,0,1,1,-4,0A4,4,0,1,1,4,0" style="fill: black; opacity: 0.3;"></path><path transform="translate(282.19693064249793,290.2223333333333)" d="M4,0A4,4,0,1,1,-4,0A4,4,0,1,1,4,0" style="fill: black; opacity: 0.3;"></path><path transform="translate(261.4447728372783,290.2223333333333)" d="M4,0A4,4,0,1,1,-4,0A4,4,0,1,1,4,0" style="fill: black; opacity: 0.3;"></path><path transform="translate(282.69597662068526,290.2223333333333)" d="M4,0A4,4,0,1,1,-4,0A4,4,0,1,1,4,0" style="fill: black; opacity: 0.3;"></path><path transform="translate(395.13173419039043,290.2223333333333)" d="M4,0A4,4,0,1,1,-4,0A4,4,0,1,1,4,0" style="fill: black; opacity: 0.3;"></path><path transform="translate(259.41250211297717,290.2223333333333)" d="M4,0A4,4,0,1,1,-4,0A4,4,0,1,1,4,0" style="fill: black; opacity: 0.3;"></path><path transform="translate(227.2372676295463,290.2223333333333)" d="M4,0A4,4,0,1,1,-4,0A4,4,0,1,1,4,0" style="fill: black; opacity: 0.3;"></path><path transform="translate(214.7994677810627,290.2223333333333)" d="M4,0A4,4,0,1,1,-4,0A4,4,0,1,1,4,0" style="fill: black; opacity: 0.3;"></path><path transform="translate(223.5051306674273,290.2223333333333)" d="M4,0A4,4,0,1,1,-4,0A4,4,0,1,1,4,0" style="fill: black; opacity: 0.3;"></path><path transform="translate(230.21321967263992,290.2223333333333)" d="M4,0A4,4,0,1,1,-4,0A4,4,0,1,1,4,0" style="fill: black; opacity: 0.3;"></path><path transform="translate(207.76472859352478,290.2223333333333)" d="M4,0A4,4,0,1,1,-4,0A4,4,0,1,1,4,0" style="fill: black; opacity: 0.3;"></path><path transform="translate(114.50522811236526,275.71121666666664)" d="M4,0A4,4,0,1,1,-4,0A4,4,0,1,1,4,0" style="fill: black; opacity: 0.3;"></path><path transform="translate(313.3298636425448,290.2223333333333)" d="M4,0A4,4,0,1,1,-4,0A4,4,0,1,1,4,0" style="fill: black; opacity: 0.3;"></path><path transform="translate(316.51551150990844,290.2223333333333)" d="M4,0A4,4,0,1,1,-4,0A4,4,0,1,1,4,0" style="fill: black; opacity: 0.3;"></path><path transform="translate(341.17212682887083,290.2223333333333)" d="M4,0A4,4,0,1,1,-4,0A4,4,0,1,1,4,0" style="fill: black; opacity: 0.3;"></path><path transform="translate(241.4902283458757,290.2223333333333)" d="M4,0A4,4,0,1,1,-4,0A4,4,0,1,1,4,0" style="fill: black; opacity: 0.3;"></path><path transform="translate(287.5045880025691,290.2223333333333)" d="M4,0A4,4,0,1,1,-4,0A4,4,0,1,1,4,0" style="fill: black; opacity: 0.3;"></path><path transform="translate(274.10228841782225,290.2223333333333)" d="M4,0A4,4,0,1,1,-4,0A4,4,0,1,1,4,0" style="fill: black; opacity: 0.3;"></path><path transform="translate(282.95217427850105,290.2223333333333)" d="M4,0A4,4,0,1,1,-4,0A4,4,0,1,1,4,0" style="fill: black; opacity: 0.3;"></path><path transform="translate(220.1095258578474,290.2223333333333)" d="M4,0A4,4,0,1,1,-4,0A4,4,0,1,1,4,0" style="fill: black; opacity: 0.3;"></path><path transform="translate(278.05557884355267,290.2223333333333)" d="M4,0A4,4,0,1,1,-4,0A4,4,0,1,1,4,0" style="fill: black; opacity: 0.3;"></path><path transform="translate(264.30909754792555,290.2223333333333)" d="M4,0A4,4,0,1,1,-4,0A4,4,0,1,1,4,0" style="fill: black; opacity: 0.3;"></path><path transform="translate(109.22449800923589,290.2223333333333)" d="M4,0A4,4,0,1,1,-4,0A4,4,0,1,1,4,0" style="fill: black; opacity: 0.3;"></path><path transform="translate(259.41250211297717,290.2223333333333)" d="M4,0A4,4,0,1,1,-4,0A4,4,0,1,1,4,0" style="fill: black; opacity: 0.3;"></path><path transform="translate(305.68546915637415,290.2223333333333)" d="M4,0A4,4,0,1,1,-4,0A4,4,0,1,1,4,0" style="fill: black; opacity: 0.3;"></path><path transform="translate(261.42118585726456,290.2223333333333)" d="M4,0A4,4,0,1,1,-4,0A4,4,0,1,1,4,0" style="fill: black; opacity: 0.3;"></path><path transform="translate(268.5910190387171,290.2223333333333)" d="M4,0A4,4,0,1,1,-4,0A4,4,0,1,1,4,0" style="fill: black; opacity: 0.3;"></path><path transform="translate(302.55485798284195,290.2223333333333)" d="M4,0A4,4,0,1,1,-4,0A4,4,0,1,1,4,0" style="fill: black; opacity: 0.3;"></path><path transform="translate(217.54295443827007,275.71121666666664)" d="M4,0A4,4,0,1,1,-4,0A4,4,0,1,1,4,0" style="fill: black; opacity: 0.3;"></path><path transform="translate(259.41250211297717,290.2223333333333)" d="M4,0A4,4,0,1,1,-4,0A4,4,0,1,1,4,0" style="fill: black; opacity: 0.3;"></path><path transform="translate(356.37241577494177,174.1334)" d="M4,0A4,4,0,1,1,-4,0A4,4,0,1,1,4,0" style="fill: black; opacity: 0.3;"></path><path transform="translate(238.1620124004916,290.2223333333333)" d="M4,0A4,4,0,1,1,-4,0A4,4,0,1,1,4,0" style="fill: black; opacity: 0.3;"></path><path transform="translate(142.3806862128545,275.71121666666664)" d="M4,0A4,4,0,1,1,-4,0A4,4,0,1,1,4,0" style="fill: black; opacity: 0.3;"></path><path transform="translate(261.4447728372783,290.2223333333333)" d="M4,0A4,4,0,1,1,-4,0A4,4,0,1,1,4,0" style="fill: black; opacity: 0.3;"></path><path transform="translate(271.6662338563691,290.2223333333333)" d="M4,0A4,4,0,1,1,-4,0A4,4,0,1,1,4,0" style="fill: black; opacity: 0.3;"></path><path transform="translate(273.8016347911165,290.2223333333333)" d="M4,0A4,4,0,1,1,-4,0A4,4,0,1,1,4,0" style="fill: black; opacity: 0.3;"></path><path transform="translate(331.83485504346817,290.2223333333333)" d="M4,0A4,4,0,1,1,-4,0A4,4,0,1,1,4,0" style="fill: black; opacity: 0.3;"></path><path transform="translate(261.4447728372783,290.2223333333333)" d="M4,0A4,4,0,1,1,-4,0A4,4,0,1,1,4,0" style="fill: black; opacity: 0.3;"></path><path transform="translate(258.8890464635256,290.2223333333333)" d="M4,0A4,4,0,1,1,-4,0A4,4,0,1,1,4,0" style="fill: black; opacity: 0.3;"></path><path transform="translate(227.94742035204402,275.71121666666664)" d="M4,0A4,4,0,1,1,-4,0A4,4,0,1,1,4,0" style="fill: black; opacity: 0.3;"></path><path transform="translate(246.60693562762137,290.2223333333333)" d="M4,0A4,4,0,1,1,-4,0A4,4,0,1,1,4,0" style="fill: black; opacity: 0.3;"></path><path transform="translate(258.33307201646795,290.2223333333333)" d="M4,0A4,4,0,1,1,-4,0A4,4,0,1,1,4,0" style="fill: black; opacity: 0.3;"></path><path transform="translate(278.4626056052719,290.2223333333333)" d="M4,0A4,4,0,1,1,-4,0A4,4,0,1,1,4,0" style="fill: black; opacity: 0.3;"></path><path transform="translate(274.471593167772,290.2223333333333)" d="M4,0A4,4,0,1,1,-4,0A4,4,0,1,1,4,0" style="fill: black; opacity: 0.3;"></path><path transform="translate(234.8685996051224,275.71121666666664)" d="M4,0A4,4,0,1,1,-4,0A4,4,0,1,1,4,0" style="fill: black; opacity: 0.3;"></path><path transform="translate(285.0902917270105,290.2223333333333)" d="M4,0A4,4,0,1,1,-4,0A4,4,0,1,1,4,0" style="fill: black; opacity: 0.3;"></path><path transform="translate(208.38089721172264,290.2223333333333)" d="M4,0A4,4,0,1,1,-4,0A4,4,0,1,1,4,0" style="fill: black; opacity: 0.3;"></path><path transform="translate(89.86933909939427,261.2001)" d="M4,0A4,4,0,1,1,-4,0A4,4,0,1,1,4,0" style="fill: black; opacity: 0.3;"></path><path transform="translate(261.4447728372783,290.2223333333333)" d="M4,0A4,4,0,1,1,-4,0A4,4,0,1,1,4,0" style="fill: black; opacity: 0.3;"></path><path transform="translate(386.19062285887287,290.2223333333333)" d="M4,0A4,4,0,1,1,-4,0A4,4,0,1,1,4,0" style="fill: black; opacity: 0.3;"></path><path transform="translate(243.81389051526938,290.2223333333333)" d="M4,0A4,4,0,1,1,-4,0A4,4,0,1,1,4,0" style="fill: black; opacity: 0.3;"></path><path transform="translate(222.27200935769133,290.2223333333333)" d="M4,0A4,4,0,1,1,-4,0A4,4,0,1,1,4,0" style="fill: black; opacity: 0.3;"></path><path transform="translate(358.3555883817548,290.2223333333333)" d="M4,0A4,4,0,1,1,-4,0A4,4,0,1,1,4,0" style="fill: black; opacity: 0.3;"></path><path transform="translate(259.41250211297717,290.2223333333333)" d="M4,0A4,4,0,1,1,-4,0A4,4,0,1,1,4,0" style="fill: black; opacity: 0.3;"></path><path transform="translate(234.64114636926834,290.2223333333333)" d="M4,0A4,4,0,1,1,-4,0A4,4,0,1,1,4,0" style="fill: black; opacity: 0.3;"></path><path transform="translate(161.01670217927276,275.71121666666664)" d="M4,0A4,4,0,1,1,-4,0A4,4,0,1,1,4,0" style="fill: black; opacity: 0.3;"></path><path transform="translate(374.140659673298,290.2223333333333)" d="M4,0A4,4,0,1,1,-4,0A4,4,0,1,1,4,0" style="fill: black; opacity: 0.3;"></path><path transform="translate(266.3976577648819,290.2223333333333)" d="M4,0A4,4,0,1,1,-4,0A4,4,0,1,1,4,0" style="fill: black; opacity: 0.3;"></path><path transform="translate(162.02417526618197,290.2223333333333)" d="M4,0A4,4,0,1,1,-4,0A4,4,0,1,1,4,0" style="fill: black; opacity: 0.3;"></path><path transform="translate(294.74553934090494,290.2223333333333)" d="M4,0A4,4,0,1,1,-4,0A4,4,0,1,1,4,0" style="fill: black; opacity: 0.3;"></path><path transform="translate(296.01920605736274,290.2223333333333)" d="M4,0A4,4,0,1,1,-4,0A4,4,0,1,1,4,0" style="fill: black; opacity: 0.3;"></path><path transform="translate(309.19741629500936,290.2223333333333)" d="M4,0A4,4,0,1,1,-4,0A4,4,0,1,1,4,0" style="fill: black; opacity: 0.3;"></path><path transform="translate(216.52917400396927,290.2223333333333)" d="M4,0A4,4,0,1,1,-4,0A4,4,0,1,1,4,0" style="fill: black; opacity: 0.3;"></path><path transform="translate(282.408498861122,290.2223333333333)" d="M4,0A4,4,0,1,1,-4,0A4,4,0,1,1,4,0" style="fill: black; opacity: 0.3;"></path><path transform="translate(213.67903522574971,275.71121666666664)" d="M4,0A4,4,0,1,1,-4,0A4,4,0,1,1,4,0" style="fill: black; opacity: 0.3;"></path><path transform="translate(320.36715566469,290.2223333333333)" d="M4,0A4,4,0,1,1,-4,0A4,4,0,1,1,4,0" style="fill: black; opacity: 0.3;"></path><path transform="translate(266.9828082521892,290.2223333333333)" d="M4,0A4,4,0,1,1,-4,0A4,4,0,1,1,4,0" style="fill: black; opacity: 0.3;"></path><path transform="translate(284.11542566997036,290.2223333333333)" d="M4,0A4,4,0,1,1,-4,0A4,4,0,1,1,4,0" style="fill: black; opacity: 0.3;"></path><path transform="translate(143.3635229086205,275.71121666666664)" d="M4,0A4,4,0,1,1,-4,0A4,4,0,1,1,4,0" style="fill: black; opacity: 0.3;"></path><path transform="translate(290.9338715781335,290.2223333333333)" d="M4,0A4,4,0,1,1,-4,0A4,4,0,1,1,4,0" style="fill: black; opacity: 0.3;"></path><path transform="translate(278.5380742911334,290.2223333333333)" d="M4,0A4,4,0,1,1,-4,0A4,4,0,1,1,4,0" style="fill: black; opacity: 0.3;"></path><path transform="translate(290.6568049314415,290.2223333333333)" d="M4,0A4,4,0,1,1,-4,0A4,4,0,1,1,4,0" style="fill: black; opacity: 0.3;"></path><path transform="translate(239.93106471977208,290.2223333333333)" d="M4,0A4,4,0,1,1,-4,0A4,4,0,1,1,4,0" style="fill: black; opacity: 0.3;"></path><path transform="translate(261.4447728372783,290.2223333333333)" d="M4,0A4,4,0,1,1,-4,0A4,4,0,1,1,4,0" style="fill: black; opacity: 0.3;"></path><path transform="translate(286.75980399836624,290.2223333333333)" d="M4,0A4,4,0,1,1,-4,0A4,4,0,1,1,4,0" style="fill: black; opacity: 0.3;"></path><path transform="translate(288.1828014311683,290.2223333333333)" d="M4,0A4,4,0,1,1,-4,0A4,4,0,1,1,4,0" style="fill: black; opacity: 0.3;"></path><path transform="translate(202.10887047996385,290.2223333333333)" d="M4,0A4,4,0,1,1,-4,0A4,4,0,1,1,4,0" style="fill: black; opacity: 0.3;"></path><path transform="translate(339.70631976873045,290.2223333333333)" d="M4,0A4,4,0,1,1,-4,0A4,4,0,1,1,4,0" style="fill: black; opacity: 0.3;"></path></g></g></g></g></g></svg>